<svg xmlns="http://www.w3.org/2000/svg" enable-background="new 0 0 212.832 206.002" viewBox="0 0 212.832 206.002" id="ballerina">
  <path d="M127.691 71.586c12.098-2.816 19.623-14.91 16.807-27.01-1.316-5.652-4.659-10.305-9.08-13.373-9.983 16.404-15.226 30.182-17.964 40.376C120.718 72.347 124.204 72.398 127.691 71.586zM100.679 54.779c.143.612.314 1.208.503 1.796 2.798-8.062 6.758-17.302 12.345-27.482C103.805 33.359 98.185 44.063 100.679 54.779z" fill="#000000" class="color000000 svgShape"></path>
  <path d="M96.467,90.211c0,1.055,0.04,1.69,0.055,1.877c0.307,4.207,3.818,7.417,7.972,7.417c0.196,0,0.393-0.007,0.592-0.021
		c4.387-0.321,7.687-4.124,7.398-8.505c-0.002-0.021-0.017-0.279-0.015-0.767c0.033-5.094,1.302-34.278,32.144-76.306
		c2.616-3.559,1.852-8.568-1.71-11.182c-3.559-2.617-8.566-1.852-11.183,1.708C98.819,49.152,96.433,82.17,96.467,90.211z" fill="#000000" class="color000000 svgShape"></path>
  <path d="M20.859,202.793c17.915-16.106,35.791-24.416,50.04-28.784c14.232-4.357,24.817-4.701,27.644-4.697
		c0.104,0,0.198,0,0.281,0.001c1.915,0.245,6.674,0.752,13.433,0.753c10.828-0.008,26.823-1.289,44.414-7.275
		c17.564-5.968,36.778-16.804,53.094-35.586c4.529-5.209,3.98-13.104-1.229-17.635c-5.209-4.529-13.105-3.979-17.633,1.23
		c-13.083,15.02-28.084,23.464-42.296,28.327c-7.532,2.573-14.82,4.083-21.327,4.939c-1.697-3.987-4.42-8.338-7.612-12.898
		c-10.134-14.476,3.732-23,2.501-38.668c0.051-5.593-2.586-10.247-6.426-13.511c-1.091,5.729-1.263,9.59-1.274,11.235
		c-0.002,0.344,0.006,0.552,0.01,0.613c0.359,5.473-3.789,10.242-9.247,10.643c-0.246,0.017-0.491,0.025-0.739,0.025
		c-5.21,0-9.587-4.073-9.967-9.273c-0.013-0.17-0.059-0.85-0.059-2.021c-0.015-3.342,0.425-14.32,5.713-30.649
		c-0.602-1.376-1.097-2.818-1.448-4.329c-2.903-12.478,4.337-24.983,16.312-28.851c0.245-0.432,0.49-0.863,0.741-1.298
		c1.775-4.347,3.784-8.873,6.075-13.582c1.934-3.972,0.28-8.761-3.691-10.693c-3.973-1.936-8.76-0.285-10.693,3.689
		c-17.458,35.829-20.38,63.075-20.372,77.07c0,1.153,0.021,2.213,0.053,3.184c-7.529,11.325-12.269,31.467-1.162,60.453
		c-6.04,0.782-13.683,2.231-22.407,4.896c-17.172,5.245-38.53,15.278-59.446,34.104c-5.131,4.618-5.55,12.522-0.933,17.654
		c2.469,2.744,5.877,4.141,9.299,4.141c2.977,0,5.967-1.058,8.355-3.207L20.859,202.793z" fill="#000000" class="color000000 svgShape"></path>
</svg>
