<svg xmlns="http://www.w3.org/2000/svg" viewBox="0 0 32 32" id="cd">
  <path d="M16,1A15,15,0,1,0,31,16,15,15,0,0,0,16,1Zm0,28A13,13,0,1,1,29,16,13,13,0,0,1,16,29Z" fill="#000000" class="color000000 svgShape"></path>
  <path d="M12.35 6.69A10 10 0 0 1 16 6a1 1 0 0 0 0-2A12 12 0 0 0 4 16a1 1 0 0 0 2 0A10 10 0 0 1 12.35 6.69zM19.65 25.31A10 10 0 0 1 16 26a1 1 0 0 0 0 2A12 12 0 0 0 28 16a1 1 0 0 0-2 0A10 10 0 0 1 19.65 25.31z" fill="#000000" class="color000000 svgShape"></path>
  <path d="M17 8a1 1 0 0 0-1-1 9 9 0 0 0-9 9 1 1 0 0 0 2 0 7 7 0 0 1 7-7A1 1 0 0 0 17 8zM15 24a1 1 0 0 0 1 1 9 9 0 0 0 9-9 1 1 0 0 0-2 0 7 7 0 0 1-7 7A1 1 0 0 0 15 24zM19 16a3 3 0 1 0-3 3A3 3 0 0 0 19 16zm-4 0a1 1 0 1 1 1 1A1 1 0 0 1 15 16z" fill="#000000" class="color000000 svgShape"></path>
</svg>
